<?xml version="1.0" encoding="utf-8"?>
<!-- Generator: Adobe Illustrator 19.0.0, SVG Export Plug-In . SVG Version: 6.00 Build 0)  -->
<svg version="1.1" id="Layer_1" xmlns="http://www.w3.org/2000/svg" xmlns:xlink="http://www.w3.org/1999/xlink" x="0px" y="0px"
	 viewBox="0 0 213.8 213.8" style="enable-background:new 0 0 213.8 213.8;" xml:space="preserve">
<style type="text/css">
	.st0{fill:#404041;}
</style>
<g>
	<path class="st0" d="M182.5,31.3C163.1,12,136.4,0,106.9,0C77.3,0,50.7,12,31.3,31.3C12,50.6,0,77.4,0,106.9
		c0,59,47.8,106.9,106.9,106.9c29.5,0,56.2-12,75.6-31.3c19.3-19.4,31.3-46.1,31.3-75.6S201.8,50.6,182.5,31.3z M75.9,161.8H50.3
		V76.2h25.6V161.8z M77.6,58.5c-0.8,1.8-1.9,3.3-3.4,4.7c-1.4,1.3-3.1,2.4-5,3.2c-1.9,0.8-3.9,1.2-6.1,1.2c-2.1,0-4-0.4-5.9-1.2
		c-1.8-0.8-3.4-1.9-4.8-3.2c-1.4-1.4-2.5-2.9-3.3-4.7c-0.8-1.8-1.2-3.7-1.2-5.8c0-2.1,0.4-4,1.2-5.9c0.8-1.8,1.9-3.4,3.3-4.8
		c1.4-1.4,3-2.5,4.8-3.2c1.8-0.8,3.8-1.2,5.9-1.2c2.2,0,4.2,0.4,6.1,1.2c1.9,0.7,3.6,1.8,5,3.2c1.4,1.4,2.5,3,3.4,4.8
		c0.9,1.8,1.3,3.8,1.3,5.9C78.9,54.8,78.5,56.7,77.6,58.5z M174.1,161.8h-25.6v-54.4c0-4.2-1-7.4-2.9-9.8c-1.9-2.3-4.8-3.5-8.5-3.5
		c-2.8,0-5.5,0.6-7.9,1.8c-2.5,1.2-4.9,2.8-7.1,4.9v61H96.6V76.2h15.8c1.6,0,2.9,0.4,4,1.1c1.1,0.7,1.8,1.8,2.3,3.2l1.5,5
		c1.6-1.6,3.4-3,5.1-4.3c1.8-1.3,3.6-2.4,5.6-3.4c2-0.9,4.2-1.6,6.5-2.1c2.3-0.5,4.9-0.8,7.6-0.8c4.7,0,8.8,0.8,12.4,2.4
		c3.6,1.6,6.7,3.9,9.1,6.8c2.5,2.9,4.3,6.3,5.6,10.3c1.3,4,1.9,8.3,1.9,13V161.8z"/>
</g>
</svg>
