<?xml version="1.0" encoding="utf-8"?>
<!-- Generator: Adobe Illustrator 19.0.0, SVG Export Plug-In . SVG Version: 6.00 Build 0)  -->
<svg version="1.1" id="Layer_1" xmlns="http://www.w3.org/2000/svg" xmlns:xlink="http://www.w3.org/1999/xlink" x="0px" y="0px"
	 viewBox="0 0 213.8 213.8" style="enable-background:new 0 0 213.8 213.8;" xml:space="preserve">
<style type="text/css">
	.st0{fill:#404041;}
</style>
<g>
	<path class="st0" d="M103.4,84C86,90,66.3,94.2,45.6,93.9c4.1-19.3,17.1-35.4,34.6-43.6C84.7,55.8,94,67.7,103.4,84z"/>
	<path class="st0" d="M63.4,152c-11.9-11.4-19.2-27.4-19.2-45.1c0-0.1,0-0.1,0-0.1c1.2,0,2.3,0.1,3.5,0.1c22.4,0,43.5-4.8,61.9-11.3
		c2.4,4.7,4.6,9.7,6.8,14.8C96.9,116.5,76.9,128.6,63.4,152z"/>
	<path class="st0" d="M121,122.3c4.5,13.3,7.9,27.8,8.8,42.9c-7.1,2.8-14.8,4.4-22.9,4.4c-12.2,0-23.5-3.5-33.1-9.5
		C85.5,138.5,103.4,127.5,121,122.3z"/>
	<path class="st0" d="M115.7,79.3c-8.3-14.9-16.9-26.5-22.5-33.5c4.4-1,9-1.5,13.6-1.5c16.8,0,32,6.7,43.3,17.4
		C141.1,67.2,129.4,73.6,115.7,79.3z"/>
	<path class="st0" d="M168.4,118.6c-3.2,16.5-12.8,30.7-26.2,39.9c-1.4-13.9-4.5-27.1-8.5-39.2C147.9,117,160.7,117.7,168.4,118.6z"
		/>
	<path class="st0" d="M158.7,71.8c6.6,9.8,10.6,21.5,10.8,34.1c-9-0.9-23.9-1.5-40.2,1.5c-2.2-5.8-4.8-11.3-7.3-16.4
		C136.7,84.7,149.2,77.7,158.7,71.8z"/>
	<path class="st0" d="M182.5,31.3C163.1,11.9,136.4,0,106.9,0C77.3,0,50.6,11.9,31.3,31.3C11.9,50.6,0,77.4,0,106.9
		C0,166,47.8,213.8,106.9,213.8c29.5,0,56.2-12,75.5-31.3c19.4-19.3,31.3-46.1,31.3-75.6C213.8,77.4,201.8,50.6,182.5,31.3z
		 M106.9,182.5c-16.4,0-31.7-5.3-44.1-14.2c-1.8-1.3-3.5-2.7-5.2-4.2c-16.1-13.8-26.3-34.4-26.3-57.2c0-41.7,33.9-75.6,75.5-75.6
		c21.3,0,40.7,8.9,54.4,23.2c3,3.2,5.8,6.5,8.2,10.1c8.2,12.1,13,26.6,13,42.3C182.5,148.6,148.5,182.5,106.9,182.5z"/>
</g>
</svg>
