<?xml version="1.0" encoding="utf-8"?>
<!-- Generator: Adobe Illustrator 19.0.0, SVG Export Plug-In . SVG Version: 6.00 Build 0)  -->
<svg version="1.1" id="Layer_1" xmlns="http://www.w3.org/2000/svg" xmlns:xlink="http://www.w3.org/1999/xlink" x="0px" y="0px"
	 viewBox="1000 -1000 2500 2500" style="enable-background:new 1000 -1000 2500 2500;" xml:space="preserve">
<style type="text/css">
	.st0{fill:#404040;}
</style>
<g>
	<g>
		<g>
			<path class="st0" d="M1177.7,250c0,424.5,246.7,791.3,604.4,965.1L1270.5-186.4C1209.2-49.1,1177.6,99.6,1177.7,250L1177.7,250z
				 M2973.9,195.9c0-132.5-47.6-224.3-88.4-295.7c-54.4-88.3-105.3-163.1-105.3-251.5c0-98.6,74.7-190.3,180-190.3
				c4.8,0,9.3,0.6,13.9,0.9c-190.8-174.8-445-281.5-724.1-281.5c-374.6,0-704.2,192.2-896,483.3c25.2,0.8,48.9,1.3,69,1.3
				c112.2,0,285.8-13.6,285.8-13.6c57.8-3.4,64.6,81.5,6.9,88.3c0,0-58.1,6.8-122.8,10.2l390.5,1161.5l234.7-703.8l-167.1-457.7
				c-57.7-3.4-112.4-10.2-112.4-10.2c-57.8-3.4-51-91.7,6.8-88.3c0,0,177.1,13.6,282.5,13.6c112.1,0,285.8-13.6,285.8-13.6
				c57.8-3.4,64.6,81.5,6.9,88.3c0,0-58.2,6.8-122.7,10.2l387.5,1152.7l106.9-357.4C2938.6,394.2,2973.9,287.7,2973.9,195.9
				L2973.9,195.9z"/>
			<path class="st0" d="M2268.8,343.8l-321.7,934.9c98.4,29,200.4,43.7,302.9,43.7c124.9,0,244.6-21.6,356.1-60.8
				c-3-4.7-5.5-9.6-7.6-14.8L2268.8,343.8z M3190.9-264.5c4.6,34.2,7.2,70.8,7.2,110.3c0,108.8-20.3,231.1-81.5,384.1l-327.6,947
				C3107.9,991,3322.3,645.6,3322.3,250C3322.6,70.1,3277.4-106.8,3190.9-264.5L3190.9-264.5z"/>
			<path class="st0" d="M2250-1000c-689.2,0-1250,560.7-1250,1250c0,689.3,560.8,1250.1,1250,1250.1
				c689.2,0,1250.1-560.7,1250.1-1250.1C3500.1-439.3,2939.2-1000,2250-1000z M2250,1442.7c-657.6,0-1192.7-535.1-1192.7-1192.7
				c0-657.6,535-1192.6,1192.7-1192.6c657.6,0,1192.6,535,1192.6,1192.6C3442.7,907.6,2907.6,1442.7,2250,1442.7L2250,1442.7z"/>
		</g>
	</g>
</g>
</svg>
