<?xml version="1.0" standalone="no"?>
<!DOCTYPE svg PUBLIC "-//W3C//DTD SVG 20010904//EN"
 "http://www.w3.org/TR/2001/REC-SVG-20010904/DTD/svg10.dtd">
<svg version="1.0" xmlns="http://www.w3.org/2000/svg"
 width="1250.000000pt" height="1250.000000pt" viewBox="0 0 1250.000000 1250.000000"
 preserveAspectRatio="xMidYMid meet">
<metadata>
Created by potrace 1.14, written by Peter Selinger 2001-2017
</metadata>
<g transform="translate(0.000000,1250.000000) scale(0.100000,-0.100000)"
fill="#000000" stroke="none">
<path d="M3533 10996 c-39 -9 -44 -14 -398 -361 -68 -66 -290 -284 -495 -485
-205 -201 -431 -423 -504 -493 -586 -573 -910 -895 -922 -919 -16 -32 -18 -95
-4 -134 6 -15 104 -146 218 -292 346 -442 512 -656 530 -681 9 -13 22 -28 27
-35 9 -9 777 -992 951 -1216 72 -92 636 -815 833 -1067 91 -116 202 -258 246
-315 44 -57 82 -105 85 -108 3 -3 44 -54 90 -115 47 -60 90 -117 97 -125 7 -8
130 -166 274 -350 143 -184 272 -348 284 -365 28 -34 340 -434 448 -573 39
-51 82 -105 94 -120 12 -15 234 -299 493 -632 260 -333 482 -616 493 -628 50
-54 127 -69 195 -37 41 18 33 8 288 345 102 135 194 256 204 270 10 14 72 95
136 180 64 85 207 274 318 420 110 146 220 292 245 325 25 33 49 65 54 70 7 8
91 119 367 485 11 14 109 144 220 290 110 146 300 398 422 560 123 162 225
297 228 300 3 3 62 79 130 170 68 91 230 305 359 475 129 171 298 393 375 495
77 102 194 257 261 345 67 88 200 264 295 390 226 299 396 523 1033 1365 123
162 138 189 132 248 -7 64 -9 68 -190 266 -6 6 -58 63 -115 126 -100 109 -141
155 -206 226 -16 17 -65 71 -109 120 -44 49 -109 120 -145 159 -81 88 -226
247 -248 273 -10 11 -55 61 -102 112 -47 51 -92 100 -100 110 -8 9 -51 57 -95
105 -44 48 -89 97 -100 109 -28 32 -185 204 -215 236 -14 15 -59 65 -100 110
-41 46 -86 95 -100 110 -14 15 -59 64 -100 110 -94 104 -109 118 -142 136 -23
12 -458 14 -3012 17 -1760 1 -3000 -2 -3023 -7z m2509 -340 c-30 -38 -338
-447 -637 -846 -192 -256 -353 -469 -358 -475 -4 -5 -65 -86 -135 -180 -70
-93 -131 -168 -136 -168 -7 1 -113 194 -403 733 -25 47 -64 119 -86 160 -22
41 -76 139 -119 218 -43 79 -78 145 -78 147 0 2 -16 32 -36 67 -20 34 -63 115
-97 178 -33 63 -66 124 -74 135 -7 11 -13 25 -13 31 0 9 267 12 1090 12 816 0
1088 -3 1082 -12z m563 -95 c133 -175 673 -891 974 -1291 155 -206 291 -386
302 -400 10 -13 19 -27 19 -31 0 -4 -632 -7 -1405 -7 l-1405 0 22 31 c22 31
310 416 350 467 10 14 78 104 150 200 397 529 613 816 618 820 3 3 17 21 30
40 14 19 28 40 33 45 4 6 25 33 45 60 161 218 153 217 267 66z m2595 102 c0
-2 -61 -111 -136 -241 -75 -130 -145 -252 -156 -270 -10 -18 -53 -93 -95 -165
-97 -168 -300 -522 -324 -564 -56 -99 -242 -419 -253 -435 -12 -16 -23 -5
-112 115 -54 72 -104 139 -111 147 -7 8 -59 78 -117 155 -58 77 -109 145 -113
150 -7 9 -584 773 -771 1022 -34 45 -62 84 -62 87 0 2 506 4 1125 4 619 0
1125 -2 1125 -5z m-5597 -220 c35 -65 83 -154 107 -198 24 -44 54 -100 68
-125 13 -25 45 -83 70 -130 24 -47 86 -161 137 -255 51 -93 125 -231 165 -305
97 -179 121 -225 229 -423 50 -93 91 -170 91 -172 0 -1 -606 -3 -1346 -3
-1209 -1 -1344 1 -1333 15 14 16 280 279 485 480 67 65 292 285 500 489 572
561 759 744 761 744 1 0 31 -53 66 -117z m5944 93 c4 -8 51 -60 103 -117 52
-56 104 -112 115 -125 25 -28 172 -189 204 -223 12 -14 55 -62 95 -105 39 -44
82 -91 96 -106 14 -15 61 -67 105 -116 44 -49 107 -118 140 -154 54 -58 179
-196 244 -268 13 -15 49 -54 79 -87 110 -121 226 -248 327 -359 43 -48 138
-44 -1239 -44 -702 0 -1276 2 -1276 4 0 7 57 109 87 156 12 21 23 40 23 44 0
3 8 18 19 32 10 15 31 51 47 80 16 29 34 61 39 70 6 9 35 60 65 112 30 52 60
104 67 115 7 11 16 27 20 35 5 12 101 179 143 250 48 82 166 286 305 528 92
160 172 292 176 292 4 0 12 -6 16 -14z m-4854 -2294 c37 -141 69 -264 72 -272
2 -8 15 -60 30 -115 32 -122 78 -296 134 -510 23 -88 46 -174 52 -191 5 -17
12 -40 14 -50 4 -16 47 -180 100 -379 9 -33 31 -118 50 -190 19 -71 91 -344
161 -605 69 -261 128 -483 130 -494 2 -10 10 -42 18 -70 23 -79 104 -386 111
-416 2 -8 11 -41 20 -74 9 -32 19 -66 20 -75 2 -9 4 -16 5 -16 1 0 3 -7 5 -15
1 -8 22 -87 45 -175 24 -88 55 -207 70 -265 78 -294 100 -380 114 -430 28
-103 57 -215 128 -480 38 -146 83 -314 99 -375 16 -60 32 -123 35 -140 3 -16
11 -39 16 -50 17 -34 -3 -9 -146 175 -75 96 -142 182 -149 190 -7 8 -100 128
-207 265 -107 138 -221 284 -255 326 -33 42 -134 172 -225 289 -91 116 -218
280 -283 363 -65 84 -124 159 -130 167 -21 26 -783 1001 -1281 1640 -448 575
-574 736 -614 785 -10 11 -30 38 -47 60 -16 22 -35 47 -42 55 -23 29 -131 168
-273 350 -79 102 -146 187 -150 190 -3 3 -25 32 -50 65 -25 33 -49 65 -55 71
-5 6 -21 26 -35 44 -14 18 -125 161 -247 318 -123 157 -223 287 -223 289 0 1
656 3 1458 3 l1457 0 68 -258z m3332 246 c-8 -23 -77 -283 -81 -305 -2 -12 -9
-34 -14 -48 -5 -14 -7 -25 -4 -25 3 0 2 -6 -3 -12 -4 -7 -8 -17 -9 -23 -1 -5
-14 -55 -29 -110 -15 -55 -34 -127 -42 -160 -7 -33 -27 -107 -43 -165 -46
-167 -141 -523 -146 -550 -2 -14 -9 -36 -14 -50 -7 -21 -124 -457 -135 -509
-5 -22 -60 -227 -90 -336 -14 -49 -27 -99 -30 -110 -2 -11 -32 -123 -65 -250
-34 -126 -63 -237 -65 -245 -2 -8 -24 -91 -50 -185 -25 -93 -59 -222 -76 -285
-16 -63 -34 -128 -39 -145 -5 -16 -12 -41 -14 -55 -3 -14 -21 -83 -41 -155
-50 -183 -146 -546 -151 -569 -2 -10 -8 -33 -14 -51 -6 -18 -12 -41 -15 -51
-2 -10 -11 -44 -19 -74 -8 -30 -40 -152 -71 -270 -31 -118 -77 -289 -102 -380
-25 -91 -47 -173 -49 -183 -2 -10 -6 -27 -9 -37 -3 -10 -8 -27 -10 -37 -13
-55 -94 -355 -97 -359 -2 -2 -16 42 -31 99 -26 96 -60 227 -143 537 -20 74
-51 191 -69 260 -41 156 -86 325 -126 478 -17 64 -47 176 -66 247 -18 72 -75
283 -124 470 -50 187 -93 347 -94 355 -2 8 -29 110 -60 225 -31 116 -58 217
-61 225 -2 8 -8 33 -14 55 -6 22 -13 48 -15 58 -2 10 -7 27 -10 37 -3 10 -8
27 -10 37 -2 10 -35 135 -73 278 -88 329 -221 829 -267 1005 -44 168 -95 360
-135 510 -17 63 -33 122 -35 130 -7 25 -82 310 -105 395 -11 44 -35 132 -51
195 -17 63 -33 123 -35 133 -5 16 72 17 1525 17 1220 0 1530 -3 1526 -12z
m3105 7 c0 -4 -192 -261 -403 -539 -12 -15 -120 -157 -239 -315 -119 -157
-221 -290 -225 -296 -5 -5 -78 -102 -163 -215 -189 -251 -242 -321 -255 -336
-5 -7 -19 -24 -30 -40 -11 -15 -78 -104 -149 -198 -71 -94 -158 -209 -193
-256 -36 -47 -70 -92 -77 -101 -7 -8 -31 -40 -53 -70 -39 -53 -362 -479 -386
-509 -7 -8 -59 -78 -117 -155 -58 -77 -107 -142 -110 -145 -3 -3 -51 -66 -107
-140 -55 -74 -127 -170 -159 -212 -33 -42 -68 -89 -79 -104 -11 -15 -101 -133
-199 -263 -98 -130 -262 -346 -364 -481 -102 -135 -247 -326 -322 -425 -75
-99 -210 -277 -299 -395 -89 -118 -171 -226 -181 -240 -81 -106 -140 -182
-140 -177 0 2 25 99 56 213 55 207 76 287 113 427 11 39 31 117 46 172 87 328
150 562 171 645 14 52 34 128 45 170 11 41 74 278 140 525 66 248 127 475 135
505 8 30 17 62 19 71 2 8 44 169 95 357 50 188 93 350 95 361 2 11 11 44 19
73 9 29 36 130 61 223 25 94 77 289 116 435 94 355 210 791 214 810 2 8 31
119 65 245 35 127 72 265 83 308 l19 77 1379 0 c759 0 1379 -2 1379 -5z"/>
</g>
</svg>
