<?xml version="1.0" standalone="no"?>
<!DOCTYPE svg PUBLIC "-//W3C//DTD SVG 20010904//EN"
 "http://www.w3.org/TR/2001/REC-SVG-20010904/DTD/svg10.dtd">
<svg version="1.0" xmlns="http://www.w3.org/2000/svg"
 width="2500.000000pt" height="2500.000000pt" viewBox="0 0 2500.000000 2500.000000"
 preserveAspectRatio="xMidYMid meet">
<metadata>
Created by potrace 1.14, written by Peter Selinger 2001-2017
</metadata>
<g transform="translate(0.000000,2500.000000) scale(0.100000,-0.100000)"
fill="#000000" stroke="none">
<path d="M4667 17020 l-2609 -4520 2609 -4520 2608 -4519 5225 0 5225 0 2608
4519 2609 4520 -2553 4422 c-1404 2432 -2555 4435 -2557 4451 -3 16 -12 31
-21 34 -9 2 -32 33 -51 69 l-35 64 -5225 0 -5225 -1 -2608 -4519z m11903 1371
l0 -1900 -82 48 c-46 27 -1523 880 -3283 1896 -1760 1016 -3202 1849 -3204
1851 -2 2 1475 4 3282 4 l3287 0 0 -1899z m-6896 631 c989 -571 1797 -1042
1797 -1048 -2 -10 -7194 -4165 -7200 -4159 -3 4 3597 6245 3603 6245 1 0 812
-467 1800 -1038z m9725 -2894 c860 -1489 1563 -2710 1563 -2715 1 -6 -2974
-1731 -3094 -1794 l-38 -19 0 3621 c0 1992 2 3620 3 3618 2 -2 707 -1222 1566
-2711z m-5425 412 l1117 -645 -1170 -3 c-643 -1 -1699 -1 -2347 0 l-1177 3
1173 677 1173 677 57 -32 c31 -18 559 -322 1174 -677z m1569 -1932 c-11 -18
-698 -1209 -1527 -2645 -830 -1437 -1512 -2613 -1516 -2613 -4 0 -686 1176
-1516 2613 -829 1436 -1516 2627 -1527 2645 l-19 32 3062 0 3062 0 -19 -32z
m-8035 -6871 l-3 -2163 -1873 3245 c-1031 1785 -1870 3247 -1865 3249 4 1 847
487 1873 1080 l1865 1077 3 -2162 c1 -1190 1 -3136 0 -4326z m9054 3131 c-6
-6 -2507 -1453 -2577 -1490 -18 -10 -19 -10 -4 13 9 13 594 1025 1300 2248
l1284 2225 3 -1494 c1 -822 -1 -1497 -6 -1502z m-6531 232 c693 -1200 1258
-2184 1257 -2185 -2 -2 -570 325 -1263 725 l-1260 728 -3 1462 c-1 805 0 1461
3 1458 3 -3 573 -987 1266 -2188z m11242 1018 c-4 -7 -879 -1523 -1945 -3368
-1066 -1845 -1943 -3354 -1949 -3352 -19 5 -3879 2235 -3879 2242 0 7 7761
4489 7773 4490 5 0 5 -6 0 -12z m-8868 -5303 c1980 -1143 3609 -2084 3620
-2092 16 -11 -568 -13 -3623 -13 l-3642 0 0 2105 0 2105 23 -14 c12 -7 1642
-949 3622 -2091z"/>
</g>
</svg>
