<?xml version="1.0" standalone="no"?>
<!DOCTYPE svg PUBLIC "-//W3C//DTD SVG 20010904//EN"
 "http://www.w3.org/TR/2001/REC-SVG-20010904/DTD/svg10.dtd">
<svg version="1.0" xmlns="http://www.w3.org/2000/svg"
 width="700.000000pt" height="700.000000pt" viewBox="0 0 700.000000 700.000000"
 preserveAspectRatio="xMidYMid meet">
<metadata>
Created by potrace 1.14, written by Peter Selinger 2001-2017
</metadata>
<g transform="translate(0.000000,700.000000) scale(0.100000,-0.100000)"
fill="#000000" stroke="none">
<path d="M2233 6160 l-272 -5 -63 -62 c-35 -33 -103 -100 -153 -148 -558 -540
-1065 -1048 -1072 -1073 -3 -13 1 -38 10 -56 12 -25 186 -255 345 -455 15 -19
55 -71 90 -115 34 -45 68 -88 75 -96 7 -8 66 -84 132 -169 66 -85 164 -211
219 -280 54 -69 165 -211 247 -316 81 -104 199 -255 261 -335 62 -80 170 -217
238 -305 69 -88 131 -167 137 -175 7 -8 130 -166 274 -350 143 -184 282 -362
308 -395 26 -33 106 -134 176 -225 191 -246 189 -244 200 -256 6 -6 48 -61 95
-121 89 -116 120 -143 166 -143 38 0 66 32 291 331 105 140 242 322 305 404
133 175 389 513 613 810 87 116 200 264 250 330 143 189 339 447 454 600 58
77 108 142 111 145 5 5 213 280 652 863 92 122 174 236 182 252 27 57 16 74
-183 291 -31 33 -94 103 -141 154 -47 52 -95 105 -107 118 -65 70 -180 197
-195 215 -10 11 -57 63 -105 115 -107 117 -110 119 -203 223 -41 46 -105 115
-142 154 l-67 70 -318 3 c-632 5 -2544 7 -2810 2z m1143 -193 c3 -3 -249 -345
-303 -412 -5 -5 -91 -120 -193 -255 -101 -135 -188 -248 -194 -252 -14 -9 -22
-3 -38 30 -14 26 -146 269 -268 492 -32 58 -84 155 -115 215 -32 61 -67 124
-77 140 -10 17 -18 33 -18 37 0 4 28 8 63 10 93 4 1138 0 1143 -5z m1769 2 c4
-5 -17 -42 -235 -419 -84 -146 -162 -281 -172 -300 -11 -19 -45 -77 -75 -129
-53 -90 -56 -93 -73 -75 -9 11 -136 177 -280 369 -145 193 -297 393 -337 446
-40 54 -73 99 -73 103 0 3 33 6 73 8 105 4 1167 1 1172 -3z m-1450 -51 c22
-29 42 -55 45 -58 3 -3 64 -84 136 -180 73 -96 225 -298 338 -449 114 -151
205 -276 202 -278 -8 -8 -1556 -8 -1556 0 0 6 454 615 495 665 8 9 65 85 126
167 132 179 137 185 158 185 10 0 35 -24 56 -52z m-1699 -31 c6 -12 37 -69 68
-127 32 -58 71 -127 86 -155 15 -27 53 -99 85 -160 32 -60 63 -119 70 -130 7
-11 32 -56 55 -100 24 -44 65 -122 92 -172 33 -61 45 -93 36 -94 -81 -4 -1469
-1 -1474 4 -4 3 117 127 267 275 575 566 694 681 699 682 3 0 10 -10 16 -23z
m3379 -19 c37 -42 227 -251 235 -258 3 -3 43 -48 90 -100 47 -52 90 -99 96
-105 5 -5 50 -55 100 -109 49 -55 96 -107 104 -116 76 -81 187 -205 193 -216
10 -17 41 -16 -791 -17 -331 0 -605 2 -608 5 -7 7 27 78 38 78 4 0 8 7 8 16 0
9 8 28 18 42 10 15 108 182 217 372 212 369 255 440 265 440 4 0 20 -15 35
-32z m-2772 -1160 c9 -29 31 -114 51 -188 38 -145 71 -273 191 -725 43 -159
93 -348 112 -420 19 -71 45 -173 59 -225 14 -52 63 -239 110 -415 46 -176 89
-336 94 -355 6 -19 51 -188 100 -375 49 -187 94 -355 99 -374 8 -28 8 -32 -3
-20 -19 21 -176 220 -396 504 -107 138 -197 252 -200 255 -3 3 -26 32 -51 65
-48 64 -502 646 -549 705 -15 19 -130 166 -254 325 -125 160 -232 297 -239
305 -15 19 -341 437 -560 719 -92 119 -173 223 -180 231 -8 9 -16 21 -20 27
-5 9 203 12 807 12 l814 1 15 -52z m1887 38 c0 -6 -16 -70 -36 -141 -19 -72
-60 -224 -90 -340 -50 -192 -77 -291 -204 -765 -23 -85 -43 -162 -45 -170 -2
-8 -18 -69 -35 -135 -18 -66 -74 -277 -125 -470 -52 -192 -114 -426 -140 -520
-25 -93 -48 -181 -51 -195 -3 -14 -14 -56 -25 -95 -28 -101 -36 -129 -64 -240
-14 -55 -28 -107 -32 -115 -4 -13 -33 69 -47 135 -2 11 -11 45 -20 76 -9 31
-18 65 -21 75 -2 11 -35 136 -73 279 -38 143 -126 476 -196 740 -70 264 -133
503 -141 530 -12 42 -58 215 -70 265 -2 8 -44 166 -93 350 -49 184 -111 416
-137 515 -26 99 -51 190 -56 202 -6 17 -4 23 9 26 9 2 394 5 855 5 631 0 837
-3 837 -12z m1725 -9 c-8 -12 -23 -34 -33 -48 -19 -28 -164 -221 -172 -229 -3
-3 -93 -121 -200 -263 -276 -367 -806 -1067 -989 -1307 -40 -52 -81 -106 -91
-120 -11 -14 -116 -153 -235 -310 -118 -157 -308 -408 -421 -558 -114 -150
-211 -275 -217 -279 -6 -3 -7 -1 -3 5 4 7 18 54 31 104 47 185 97 374 114 438
10 36 28 101 40 145 12 44 62 233 112 420 50 187 92 347 94 355 4 16 18 68 66
249 17 63 32 121 34 130 2 9 33 124 68 256 36 132 79 292 96 355 67 259 173
656 176 668 4 10 154 13 775 11 l771 -1 -16 -21z"/>
</g>
</svg>
