<?xml version="1.0" standalone="no"?>
<!DOCTYPE svg PUBLIC "-//W3C//DTD SVG 20010904//EN"
 "http://www.w3.org/TR/2001/REC-SVG-20010904/DTD/svg10.dtd">
<svg version="1.0" xmlns="http://www.w3.org/2000/svg"
 width="3653.000000pt" height="3653.000000pt" viewBox="0 0 3653.000000 3653.000000"
 preserveAspectRatio="xMidYMid meet">
<metadata>
Created by potrace 1.14, written by Peter Selinger 2001-2017
</metadata>
<g transform="translate(0.000000,3653.000000) scale(0.100000,-0.100000)"
fill="#000000" stroke="none">
<path d="M25881 24884 c-22 -16 -502 -17 -6355 -17 -4563 1 -6342 4 -6371 12
-22 6 -54 8 -70 5 -48 -9 -107 -46 -133 -84 -12 -19 -762 -775 -1666 -1680
-903 -905 -1676 -1683 -1716 -1730 -148 -169 -309 -324 -394 -380 -47 -30 -89
-65 -95 -78 -35 -73 14 -183 88 -197 9 -2 1337 -4 2951 -4 l2935 -1 -2464
-2463 -2463 -2463 -66 12 c-72 14 -339 12 -447 -3 -69 -9 -5498 -10 -5562 -1
-55 8 -138 -31 -171 -82 -13 -19 -762 -775 -1666 -1680 -903 -905 -1676 -1683
-1717 -1730 -190 -218 -299 -322 -411 -394 -31 -19 -64 -46 -72 -58 -32 -45
-13 -130 39 -178 l27 -25 6246 -2 c3436 -1 6303 -3 6372 -3 69 0 137 1 153 3
15 3 30 0 33 -5 3 -4 9 -6 14 -3 5 3 11 1 15 -5 9 -15 62 -12 98 5 50 24
13052 13033 13065 13072 18 56 -15 130 -71 158 -39 20 -97 19 -126 -1z"/>
<path d="M29646 24870 c-34 -28 -149 -143 -4201 -4185 -1606 -1602 -3365
-3357 -3910 -3900 -544 -543 -1861 -1856 -2925 -2917 -1064 -1062 -1952 -1941
-1972 -1954 -47 -30 -68 -70 -68 -130 0 -58 28 -106 74 -128 40 -19 64 -20
103 -5 20 8 2201 10 7698 9 4219 -1 7704 -2 7745 -1 119 4 166 36 177 123 5
42 53 91 1890 1929 l1886 1887 -5 54 c-8 101 -64 139 -244 163 -55 7 -302 6
-344 -2 -19 -4 -1803 -8 -3965 -10 l-3930 -3 4427 4427 c2553 2554 4432 4440
4438 4456 15 41 13 65 -10 113 -38 78 284 71 -3395 72 -3013 0 -3303 1 -3338
16 -50 22 -94 17 -131 -14z"/>
</g>
</svg>
